<svg id="Capa_1" enable-background="new 0 0 497 497" height="512" viewBox="0 0 497 497" width="512" xmlns="http://www.w3.org/2000/svg"><g><g><path d="m490.558 168.822-15.653 15.653-8.677 4.677-278.113 279.022-3.63 6.724-15.653 15.653c-1.77 1.769-3.762 3.181-5.891 4.222-8.209 4.012-19.899-1.492-26.721-8.314l-125.536-127.186c-6.861-6.861-8.24-17.124-4.144-25.356 1.033-2.077 2.413-4.026 4.144-5.757l304.315-306.339c6.822-6.822 30.18-23.619 38.388-19.606 2.129 1.041 4.125 2.446 5.895 4.215l131.277 131.278c1.731 1.731 3.111 3.68 4.144 5.757 4.095 8.233 2.716 18.496-4.145 25.357z" fill="#ddd3ce"/><path d="m162.941 494.773-145.301-145.506c-3.12-3.125-3.119-8.187.004-11.31l335.743-335.742c-1.154-.563-2.872-1.279-5.045-1.741-6.862-1.459-12.364.866-13.678 1.459-1.597.721-4.046 2.059-6.495 4.498-107.243 107.242-214.485 214.485-321.727 321.728-1.731 1.731-3.11 3.68-4.144 5.757-4.096 8.232-2.717 18.495 4.144 25.356l131.277 131.278c7.057 7.059 17.638 8.095 25.222 4.223z" fill="#d1c7c1"/></g><g><g><path d="m386.834 96.396c-3.921-3.921-295.731 282.291-291.81 286.212l89.461 89.462 10.607-7.778 18.435-18.436 2.811-7.054 7.796-3.553 13.132-13.132 4.596-7.425 6.01-3.182 23.739-23.739 4.78-7.608 5.827-2.999 13.132-13.132 3.889-6.718 6.718-3.889 23.739-23.739 3.889-6.718 6.718-3.889 13.132-13.132 3.182-7.425 7.425-3.182 23.739-23.739 3.889-6.718 6.718-3.889 13.132-13.132 3.889-6.718 6.718-3.889 23.739-23.739 3.182-7.425 7.425-3.182 18.435-18.436-10.607-10.607z" fill="#f7f3f1"/></g><path d="m369.156 92.86-11.368 11.368-3.889 6.718-6.718 3.889-19.125 19.125-7.796 10.624-12.038 9.21-8.518 8.519-4.208 7.037-6.399 3.57-19.125 19.125-8.503 11.331-11.331 8.503-8.519 8.519-3.889 6.718-6.718 3.889-19.125 19.125-8.934 11.762-10.9 8.072-8.519 8.519-4.322 7.151-6.284 3.456-19.125 19.125-8.184 11.012-11.65 8.821-8.519 8.519-3.906 6.734-6.701 3.873-18.433 18.435s-3.523 3.523-3.523 3.523c-3.912 3.912-3.905 10.262.016 14.183l80.975 80.976 10.607 10.607 10.607-10.607-10.607-10.607-73.933-73.933c-1.953-1.953-1.953-5.119 0-7.071l276.282-276.284-3.536-3.536c-3.905-3.905-10.237-3.905-14.142 0z" fill="#eae2df"/></g><g fill="#ddd3ce"><path d="m199.775 257.85h15v15h-15z" transform="matrix(.707 -.707 .707 .707 -126.921 224.283)"/><path d="m257.859 199.765h15v15h-15z" transform="matrix(.707 -.707 .707 .707 -68.837 248.342)"/><path d="m315.943 141.68h15v15h-15z" transform="matrix(.707 -.707 .707 .707 -10.753 272.401)"/><path d="m141.691 315.934h15v15h-15z" transform="matrix(.707 -.707 .707 .707 -185.005 200.224)"/></g><g><g fill="#eae2df"><path d="m212.017 361.161h15v65.201h-15z" transform="matrix(.707 -.707 .707 .707 -214.136 270.55)"/><path d="m270.101 303.076h15v65.201h-15z" transform="matrix(.707 -.707 .707 .707 -156.052 294.609)"/><path d="m328.185 244.992h15v65.201h-15z" transform="matrix(.707 -.707 .707 .707 -97.968 318.668)"/><path d="m386.269 186.907h15v65.201h-15z" transform="matrix(.707 -.707 .707 .707 -39.884 342.727)"/></g><g><path d="m224.134 435.249-88.075-88.076-10.607-7.778-7.778 7.778 7.778 10.607 88.075 88.076z" fill="#eae2df"/><path d="m117.952 339.673h15v15h-15z" fill="#ddd3ce" transform="matrix(.707 -.707 .707 .707 -208.744 190.391)"/></g><g><path d="m282.218 377.164-88.075-88.075-10.607-7.779-7.778 7.779 7.778 10.606 88.075 88.076z" fill="#eae2df"/><path d="m176.036 281.589h15v15h-15z" fill="#ddd3ce" transform="matrix(.707 -.707 .707 .707 -150.66 214.45)"/></g><g><path d="m340.302 319.08-88.075-88.076-10.607-7.778-7.778 7.778 7.778 10.607 88.075 88.075z" fill="#eae2df"/><path d="m234.12 223.504h15v15h-15z" fill="#ddd3ce" transform="matrix(.707 -.707 .707 .707 -92.576 238.509)"/></g><g><path d="m398.386 260.995-88.075-88.076-10.607-7.778-7.778 7.778 7.778 10.607 88.075 88.076z" fill="#eae2df"/><path d="m292.204 165.419h15v15h-15z" fill="#ddd3ce" transform="matrix(.707 -.707 .707 .707 -34.492 262.568)"/></g><g><path d="m456.47 202.91-88.075-88.075-10.607-7.778-7.778 7.778 7.778 10.607 88.075 88.075z" fill="#eae2df"/><path d="m350.288 107.335h15v15h-15z" fill="#ddd3ce" transform="matrix(.707 -.707 .707 .707 23.593 286.627)"/></g></g><g><g><path d="m208.353 256.493-9.934 9.934c-1.953 1.953-1.953 5.119 0 7.071l56.111 56.111 9.192-6.364 7.106-7.106c1.953-1.953 1.953-5.119 0-7.071l-48.328-48.329-7.075-4.247c-1.954-1.951-5.12-1.951-7.072.001z" fill="#8e73ff"/><path d="m213.979 269.26c-1.172 1.172-1.172 3.071 0 4.243l49.742 49.743-5.657 5.657c-1.953 1.953-5.118 1.953-7.071 0l-58.939-58.94 19.834-19.834 10.611 10.611z" fill="#7d67e5"/></g><g><path d="m266.437 198.409-9.934 9.934c-1.953 1.953-1.953 5.119 0 7.071l56.111 56.111 9.192-6.364 7.106-7.106c1.953-1.953 1.953-5.119 0-7.071l-48.328-48.329-7.075-4.247c-1.954-1.952-5.12-1.952-7.072.001z" fill="#8e73ff"/><path d="m272.063 211.176c-1.172 1.172-1.172 3.071 0 4.243l49.742 49.743-5.657 5.657c-1.953 1.953-5.118 1.953-7.071 0l-58.939-58.94 19.834-19.834 10.611 10.611z" fill="#7d67e5"/></g><g><path d="m324.521 140.324-9.934 9.934c-1.953 1.953-1.953 5.119 0 7.071l56.111 56.111 9.192-6.364 7.106-7.106c1.953-1.953 1.953-5.119 0-7.071l-48.328-48.329-7.075-4.247c-1.954-1.951-5.12-1.951-7.072.001z" fill="#8e73ff"/><path d="m330.147 153.091c-1.172 1.172-1.172 3.071 0 4.243l49.742 49.743-5.657 5.657c-1.953 1.953-5.118 1.953-7.071 0l-58.939-58.94 19.834-19.834 10.611 10.611z" fill="#7d67e5"/></g><g><path d="m150.269 314.578-9.934 9.934c-1.953 1.953-1.953 5.119 0 7.071l56.111 54.697 9.193-4.95 7.106-7.106c1.953-1.953 1.953-5.119 0-7.071l-48.328-48.329-7.075-4.247c-1.955-1.952-5.121-1.952-7.073.001z" fill="#8e73ff"/><path d="m155.895 327.345c-1.172 1.172-1.172 3.071 0 4.243l49.742 49.743-5.657 5.657c-1.953 1.953-5.118 1.953-7.071 0l-58.939-58.94 19.834-19.834 10.611 10.611z" fill="#7d67e5"/></g></g><g><path d="m307.637 105.721c0-8.299-6.723-15.026-15.016-15.026-1.518 0-2.983.228-4.365.647-6.164 1.871-8.651 13.379-8.651 14.379 0 8.299 4.723 13.026 13.016 13.026 1 0 12.493-2.486 14.366-8.649.422-1.385.65-2.854.65-4.377z" fill="#8e73ff"/><path d="m302.621 110.747c-8.293 0-15.016-6.728-15.016-15.026 0-1.523.23-2.994.651-4.379-6.164 1.871-10.651 7.6-10.651 14.379 0 8.299 6.723 15.026 15.016 15.026 6.771 0 12.493-4.486 14.366-10.649-1.381.42-2.847.649-4.366.649z" fill="#7d67e5"/></g><g><path d="m266.49 146.869c0-8.299-6.723-15.026-15.016-15.026-1.518 0-2.983.228-4.365.647-6.164 1.871-8.651 11.813-8.651 14.379 0 8.299 4.723 13.026 13.016 13.026 2.701 0 12.493-2.486 14.366-8.649.421-1.385.65-2.854.65-4.377z" fill="#8e73ff"/><path d="m261.474 151.895c-8.293 0-15.016-6.728-15.016-15.026 0-1.523.23-2.994.651-4.379-6.164 1.871-10.651 7.6-10.651 14.379 0 8.299 6.723 15.026 15.016 15.026 6.771 0 12.493-4.486 14.366-10.649-1.382.42-2.848.649-4.366.649z" fill="#7d67e5"/></g><g><path d="m348.785 64.573c0-8.299-6.723-15.026-15.016-15.026-1.518 0-2.983.228-4.365.647-6.164 1.871-8.651 13.175-8.651 14.379 0 8.299 4.988 10.947 13.016 13.026 1 .259 12.493-2.486 14.366-8.649.421-1.385.65-2.854.65-4.377z" fill="#8e73ff"/><path d="m343.769 69.599c-8.293 0-15.016-6.728-15.016-15.026 0-1.523.23-2.994.651-4.379-6.164 1.871-10.651 7.6-10.651 14.379 0 8.299 6.723 15.026 15.016 15.026 6.771 0 12.493-4.486 14.366-10.649-1.381.42-2.847.649-4.366.649z" fill="#7d67e5"/></g><g><g><path d="m212.438 175.262-14.157 14.157c-2.929 2.929-7.678 2.929-10.607 0s-2.929-7.677 0-10.607l14.157-14.157c2.929-2.929 7.678-2.929 10.607 0s2.929 7.677 0 10.607z" fill="#d1c7c1"/></g><g><path d="m233.688 196.512-14.157 14.157c-2.929 2.929-7.678 2.929-10.607 0s-2.929-7.677 0-10.607l14.157-14.157c2.929-2.929 7.678-2.929 10.607 0s2.93 7.678 0 10.607z" fill="#d1c7c1"/></g></g><g><path d="m135.169 244.753 32.571-32.571c1.953-1.953 5.119-1.953 7.071 0l7.071 4.243 7.108 7.108c1.953 1.953 1.953 5.119 0 7.071l-28.329 28.329-7.071 4.243c-1.953 1.953-5.119 1.953-7.071 0l-11.351-11.351c-1.952-1.954-1.952-5.119.001-7.072z" fill="#f7f3f1"/><path d="m151.432 246.874c-.781.781-.781 2.047 0 2.828l9.229 9.229-7.071 7.071c-1.953 1.953-5.118 1.953-7.071 0l-14.179-14.179c-1.953-1.953-1.953-5.119 0-7.071l35.4-35.4c1.953-1.953 5.118-1.953 7.071 0l7.071 7.071z" fill="#eae2df"/></g><g><g fill="#36c991"><circle cx="43.341" cy="333.753" r="7.5"/><circle cx="64.577" cy="312.517" r="7.5"/><circle cx="85.812" cy="291.282" r="7.5"/></g><circle cx="107.047" cy="270.046" fill="#d1c7c1" r="7.5"/><circle cx="75.209" cy="344.386" fill="#d1c7c1" r="7.5"/><circle cx="96.445" cy="323.15" fill="#d1c7c1" r="7.5"/><circle cx="117.68" cy="301.914" fill="#fc5461" r="7.5"/></g></g></svg>