<svg id="icon" height="512" viewBox="0 0 128 128" width="512" xmlns="http://www.w3.org/2000/svg"><rect fill="#f6c863" height="52.251" rx="1.952" width="82" x="23" y="37.874"/><g fill="#eab54e"><path d="m104.474 38.5c-6.163 6.155-13.8 13.118-20.184 19.014-3.159 2.989-6.446 5.832-9.672 8.744l-9.718 8.689-.9.8-.9-.8-9.721-8.689c-3.224-2.915-6.516-5.752-9.674-8.742-6.389-5.9-14.018-12.859-20.178-19.017 6.909 5.301 14.885 11.873 21.564 17.44 3.376 2.741 6.618 5.636 9.927 8.453l9.882 8.508h-1.8l9.882-8.505c3.307-2.82 6.554-5.709 9.929-8.452 6.679-5.568 14.659-12.135 21.563-17.443z"/><path d="m78.589 61.318 25.885 28.18-28.136-25.928z"/><path d="m49.411 61.318-25.885 28.18 28.136-25.928z"/></g></svg>