<svg id="visual" viewBox="0 0 900 300" width="900" height="300" xmlns="http://www.w3.org/2000/svg" xmlns:xlink="http://www.w3.org/1999/xlink" version="1.1"><path d="M0 36L13.7 34C27.3 32 54.7 28 82 27.2C109.3 26.3 136.7 28.7 163.8 29.2C191 29.7 218 28.3 245.2 27.2C272.3 26 299.7 25 327 26.7C354.3 28.3 381.7 32.7 409 34C436.3 35.3 463.7 33.7 491 33.2C518.3 32.7 545.7 33.3 573 33.2C600.3 33 627.7 32 654.8 32.5C682 33 709 35 736.2 33.2C763.3 31.3 790.7 25.7 818 24.2C845.3 22.7 872.7 25.3 886.3 26.7L900 28" fill="none" stroke-linecap="round" stroke-linejoin="miter" stroke="#636363" stroke-width="40"></path></svg>